<?xml version="1.0" encoding="UTF-8"?>
<svg xmlns="http://www.w3.org/2000/svg" viewBox="0 0 24 24" enable-background="new 0 0 24 24">
    <path d="M 12 1 C 12 1 11.3 5.6 10 7 C 9.9 5.4 9 4.40625 9 4.40625 C 8.3 7.30625 6 8.6875 6 11.1875 C 6 13.9875 7.90625 16.3 10.40625 17 C 10.20625 16.5 10 15.8875 10 15.1875 C 10 12.2875 12 9.6875 12 9.6875 C 12 9.6875 14 12.2875 14 15.1875 C 14 15.8875 13.79375 16.5 13.59375 17 C 16.09375 16.3 18 13.9875 18 11.1875 C 18 9.0875 17.30625 7.5875 16.40625 6.1875 C 16.40625 6.2875 16.0125 8.6875 14.8125 9.6875 C 16.4125 4.6875 12 1 12 1 z M 7 18 C 5.9 18 5 18.9 5 20 L 5 21 L 5 22 L 19 22 L 19 20 C 19 18.9 18.1 18 17 18 L 17 20 L 15 20 L 15 18 L 13 18 L 13 20 L 11 20 L 11 18 L 9 18 L 9 20 L 7 20 L 7 18 z"/>
</svg>