<?xml version="1.0" encoding="utf-8"?>
<!-- Svg Vector Icons : http://www.onlinewebfonts.com/icon -->
<!DOCTYPE svg PUBLIC "-//W3C//DTD SVG 1.1//EN" "http://www.w3.org/Graphics/SVG/1.1/DTD/svg11.dtd">
<svg version="1.1" xmlns="http://www.w3.org/2000/svg" xmlns:xlink="http://www.w3.org/1999/xlink" x="0px" y="0px" viewBox="0 0 1000 1000" enable-background="new 0 0 1000 1000" xml:space="preserve">
<metadata> Svg Vector Icons : http://www.onlinewebfonts.com/icon </metadata>
<g><g transform="translate(0.000000,512.000000) scale(0.100000,-0.100000)"><path d="M7845.2,4993.4c-171.1-46.1-290.3-123-484.4-315.3c-244.2-240.3-403.7-488.3-692.1-1065c-125-251.8-232.6-446-238.4-432.5c-3.8,15.4-23.1,65.4-38.4,113.4c-63.4,180.7-249.9,399.9-428.7,501.7c-44.2,25-80.8,59.6-80.8,75c0,51.9-96.1,236.5-167.2,323c-84.6,101.9-257.6,219.2-374.9,251.8c-76.9,21.1-86.5,30.8-119.2,123c-51.9,146.1-221.1,307.6-369.1,351.8c-128.8,36.5-313.3,28.8-403.7-17.3c-51.9-26.9-65.4-26.9-171.1,9.6c-307.6,103.8-676.7-63.4-788.2-359.5c-30.8-75-48.1-92.3-155.7-142.3c-228.8-107.7-386.4-315.3-434.5-574.8l-21.1-113.4l-125-53.8c-390.2-171.1-603.6-642.1-474.8-1049.6c7.7-21.2-13.5-88.4-51.9-165.3c-57.7-117.3-63.4-146.1-63.4-303.7c0-94.2,7.7-194.2,17.3-219.2c13.5-40.4,0-32.7-84.6,42.3c-157.6,136.5-324.9,211.5-499.8,221.1c-146.1,7.7-146.1,7.7-198-53.8c-28.8-32.7-51.9-76.9-51.9-96.1c0-111.5,90.4-192.2,217.2-192.2c36.5,0,96.1-11.5,130.7-26.9c76.9-32.7,248-159.6,248-184.6c0-7.7-46.1-30.8-100-48.1c-178.8-59.6-403.7-186.5-505.6-288.4c-174.9-174.9-246.1-407.5-203.8-663.2c15.4-98,15.4-155.7,0-215.3c-28.8-113.4,271.1-4352.3,319.1-4513.8c96.1-317.2,349.9-563.3,680.5-661.3c94.2-26.9,378.7-30.8,2683.7-30.8c2305,0,2589.5,3.8,2683.7,30.8c374.9,109.6,659.4,438.3,707.5,815.1c11.5,78.8,86.5,1118.8,169.2,2310.7l148,2166.5l-38.4,53.8c-30.8,40.4-126.9,109.6-155.7,111.5c-1.9,0,34.6,134.6,82.7,298c261.5,922.7,421,1872.4,461.4,2760.5c11.5,240.3,7.7,315.3-21.1,442.2C8723.7,4793.5,8306.5,5118.4,7845.2,4993.4z M8181.6,4647.4c90.4-42.3,215.3-184.6,265.3-301.8c80.7-182.6,94.2-286.4,80.7-588.3c-44.2-959.3-246.1-2049.3-555.6-3008.5l-61.5-190.3l-105.7-46.2c-57.7-26.9-151.9-69.2-207.6-94.2c-228.8-107.7-384.5-96.1-634.4,48.1c-344.1,198-659.4,203.8-984.3,13.5c-142.3-82.7-298-142.3-317.2-123c-17.3,17.3,228.8,740.1,384.5,1134.2C6188.1,1850.3,6966.6,3469,7182,3853.5c117.3,211.5,286.4,453.7,388.3,561.3C7785.6,4639.7,8014.4,4726.2,8181.6,4647.4z M4179.2,4582c26.9-9.6,82.7-50,126.9-88.4l78.8-71.1l71.1,67.3c38.4,38.4,90.4,78.8,113.4,90.3c63.4,32.7,161.5,25,232.6-17.3c90.4-55.7,123-146.1,107.7-296l-11.5-121.1l169.2-9.6c188.4-9.6,253.8-34.6,355.6-134.6c75-76.9,125-184.5,142.3-315.3c11.5-98,15.4-100,101.9-132.6c298-113.4,461.4-361.4,442.2-670.9c-7.7-121.1-69.2-299.9-101.9-299.9c-5.8,0-59.6,32.7-121.1,75c-59.6,40.4-153.8,96.1-209.6,125c-53.8,26.9-103.8,57.7-111.5,67.3c-5.8,11.5,15.4,69.2,48.1,128.8c153.8,288.4-26.9,661.3-317.2,661.3c-73,0-1101.5-221.1-1190-253.8c-178.8-71.1-263.4-240.3-221.1-444.1c34.6-157.6,86.5-240.3,192.2-305.7c51.9-32.7,94.2-69.2,94.2-80.7s-48.1-86.5-109.6-165.3c-138.4-184.6-236.4-390.2-261.4-553.6l-21.1-128.8l-163.4,165.3c-123,123-199.9,182.6-299.9,230.7c-123,59.6-148,65.4-317.2,65.4c-171.1,0-192.2-3.8-330.7-71.1c-80.7-38.4-151.9-65.4-157.6-57.7c-5.8,5.8-11.5,53.8-11.5,107.7c0,115.3,40.4,192.2,149.9,280.7l75,59.6l-67.3,134.6c-57.7,111.5-69.2,153.8-69.2,253.7c1.9,303.7,207.6,503.7,544,526.7c86.5,5.8,155.7,17.3,155.7,23.1c0,5.8-13.5,59.6-28.8,117.3c-51.9,194.2-28.8,323,82.7,446c86.5,96.1,196.1,148,311.4,149.9c48.1,0,96.1,7.7,107.7,15.4c11.5,7.7,25,71.1,30.8,142.3c5.8,90.3,19.2,146.1,46.1,182.6C3912,4582,4061.9,4628.2,4179.2,4582z M5294.2,3263.3c80.7-80.7,30.8-101.9-501.7-219.1c-338.3-75-507.5-103.8-528.7-92.3c-40.4,19.2-46.1,82.7-11.5,105.7c17.3,11.5,905.4,219.2,999.6,234.5C5259.6,3294,5278.8,3280.6,5294.2,3263.3z M5265.3,2690.4c46.1-88.4,101.9-134.6,299.9-242.2c151.9-82.7,251.8-163.4,319.1-253.8l51.9-75l-61.5-138.4c-34.6-76.9-88.4-201.8-117.3-280.7c-30.8-76.9-69.2-146.1-86.5-150c-165.3-57.7-346-149.9-517.1-261.4c-251.8-165.3-359.5-217.2-526.7-246.1c-113.4-19.2-378.7-9.6-378.7,11.5c0,5.8-26.9,132.6-59.6,282.6c-92.3,430.6-69.2,553.6,169.2,870.8c123,167.3,159.6,246.1,159.6,353.7v71.1l313.3,69.2c171.1,36.5,328.7,69.2,349.9,71.1C5207.6,2775,5232.7,2750,5265.3,2690.4z M3162.2,1796.5c151.9-71.1,315.3-246.1,478.7-515.2c125-203.8,169.2-349.9,178.8-605.5c11.5-251.8,1.9-323-48.1-323c-17.3,0-136.5,51.9-263.4,115.3c-392.2,199.9-599.8,201.8-970.8,15.4l-201.9-101.9h-192.2c-188.4,0-194.2,1.9-336.4,78.8c-78.8,44.2-182.6,100-230.7,125c-109.6,59.6-115.3,65.4-115.3,180.7c1.9,242.2,159.6,390.2,557.5,519c211.5,67.3,282.6,109.6,488.3,286.4C2795,1817.7,2979.6,1881.1,3162.2,1796.5z M5428.7,796.9c-57.7-173-103.8-326.8-103.8-342.2c0-15.4-5.8-25-13.5-21.1c-9.6,3.8-80.7,38.4-159.6,78.8c-230.7,113.4-407.6,134.6-644,73.1c-146.1-38.4-163.4-32.7-163.4,55.8c0,48.1,1.9,48.1,169.2,50c290.3,3.8,492.1,80.7,840.1,313.3c94.2,63.4,173,113.4,174.9,111.5C5530.6,1114,5486.4,969.9,5428.7,796.9z M3441-2079c67.3-34.6,105.7-136.5,78.8-207.6c-42.3-109.6-46.1-109.6-772.8-109.6h-665.2l-51.9,50c-82.7,84.6-55.7,232.6,53.8,276.8c21.2,9.6,324.9,17.3,670.9,17.3C3275.6-2050.2,3394.8-2056,3441-2079z M3787-2771.1c67.3-34.6,105.7-136.5,78.8-207.6c-42.3-111.5-30.8-109.6-943.9-109.6c-626.7,1.9-843.9,7.7-867,25c-107.7,82.7-92.3,253.8,28.8,301.8c21.2,9.6,401.8,17.3,843.9,17.3C3602.5-2742.3,3740.9-2746.1,3787-2771.1z M4131.1-3463.2c107.7-55.8,111.5-240.3,5.8-296.1c-26.9-15.4-361.4-21.1-1041.9-21.1H2091.4l-55.7,55.8c-38.4,38.4-55.7,75-55.7,117.3c0,42.3,17.3,78.8,55.7,117.3l55.7,55.8h993.9C3919.6-3434.3,4085-3438.2,4131.1-3463.2z M5157.7-3457.4c65.4-34.6,88.4-75,90.4-155.7c0-51.9-13.5-86.5-48.1-119.2c-44.2-46.2-57.7-48.1-288.4-48.1c-230.7,0-244.2,1.9-288.4,48.1c-80.7,78.8-61.5,217.2,38.4,274.9C4713.6-3428.6,5103.9-3426.6,5157.7-3457.4z"/><path d="M8133.5,3857.3c-23-19.2-55.7-65.4-75-101.9c-19.2-42.3-61.5-80.7-107.7-103.8c-65.4-32.7-86.5-34.6-159.6-15.4c-296,80.7-571-36.5-705.5-298c-59.6-119.2-30.7-221.1,75-267.2c92.3-38.4,173-5.8,221.1,88.4c21.1,40.4,61.5,92.3,90.4,115.3c48.1,38.4,65.4,40.4,178.8,26.9c311.4-38.5,472.9,3.8,617.1,159.6c138.4,149.9,171.1,296,84.6,380.6C8296.9,3899.6,8193.1,3905.4,8133.5,3857.3z"/><path d="M7924,2746.2c-30.8-26.9-63.4-69.2-69.2-94.2c-15.4-65.4-132.6-161.5-217.2-176.9c-42.3-7.7-109.6-1.9-167.3,13.5c-309.5,82.7-611.3-36.5-763.2-298c-73.1-128.8-75-226.8-5.8-290.3c59.6-55.7,149.9-63.4,213.4-19.2c23.1,15.4,59.6,67.3,82.7,115.3c71.1,146.1,207.6,201.9,384.5,153.8c134.6-36.5,257.6-36.5,374.9-1.9c338.3,101.9,569,522.9,342.2,624.8C8027.8,2805.8,7985.5,2798.1,7924,2746.2z"/><path d="M7508.7,1542.7c-26.9-21.1-50-51.9-50-67.3c0-15.4-30.8-61.5-69.2-103.8c-94.2-105.7-180.7-126.9-338.3-84.6c-238.4,61.5-482.5,0-645.9-165.3c-101.9-103.8-161.5-215.3-161.5-305.7c0-94.2,98-184.6,182.6-167.3c73,15.4,125,59.6,155.7,136.5c34.6,80.8,132.6,159.6,217.2,174.9c40.4,7.7,111.5,1.9,167.2-11.5c142.3-36.5,311.4-30.8,440.2,19.2c194.2,73,376.8,294.1,378.7,457.5C7785.6,1562,7622.2,1631.2,7508.7,1542.7z"/></g></g>
</svg>