<?xml version="1.0" encoding="iso-8859-1"?>
<!-- Generator: Adobe Illustrator 17.1.0, SVG Export Plug-In . SVG Version: 6.00 Build 0)  -->
<!DOCTYPE svg PUBLIC "-//W3C//DTD SVG 1.1//EN" "http://www.w3.org/Graphics/SVG/1.1/DTD/svg11.dtd">
<svg version="1.1" id="Capa_1" xmlns="http://www.w3.org/2000/svg" xmlns:xlink="http://www.w3.org/1999/xlink" x="0px" y="0px"
	 viewBox="0 0 219.167 219.167" style="enable-background:new 0 0 219.167 219.167;" xml:space="preserve">
<path d="M218.575,96.143l-28.094-66.483c-1.173-2.776-3.895-4.581-6.909-4.581H35.594c-3.014,0-5.735,1.805-6.909,4.581
	L0.591,96.143c-0.979,2.315-0.731,4.968,0.658,7.063c1.39,2.096,3.737,3.355,6.251,3.355h9.134v80.026c0,4.143,3.358,7.5,7.5,7.5
	h170.899c4.142,0,7.5-3.357,7.5-7.5v-80.026h9.133c2.514,0,4.861-1.26,6.251-3.355C219.307,101.111,219.554,98.458,218.575,96.143z
	 M153.034,166.78v-47.082h25.897v47.082H153.034z M41.879,166.489v-46.501h25.712v46.501H41.879z M82.592,119.988h25.713v46.501
	H82.592V119.988z"/>
<g>
</g>
<g>
</g>
<g>
</g>
<g>
</g>
<g>
</g>
<g>
</g>
<g>
</g>
<g>
</g>
<g>
</g>
<g>
</g>
<g>
</g>
<g>
</g>
<g>
</g>
<g>
</g>
<g>
</g>
</svg>
