<?xml version="1.0" encoding="utf-8"?>
<!-- Svg Vector Icons : http://www.onlinewebfonts.com/icon -->
<!DOCTYPE svg PUBLIC "-//W3C//DTD SVG 1.1//EN" "http://www.w3.org/Graphics/SVG/1.1/DTD/svg11.dtd">
<svg version="1.1" xmlns="http://www.w3.org/2000/svg" xmlns:xlink="http://www.w3.org/1999/xlink" x="0px" y="0px" viewBox="0 0 1000 1000" enable-background="new 0 0 1000 1000" xml:space="preserve">
<metadata> Svg Vector Icons : http://www.onlinewebfonts.com/icon </metadata>
<g><g transform="translate(0.000000,511.000000) scale(0.100000,-0.100000)"><path d="M7623.6,4283.6c-835.9-786-1649.8-1576-1735.6-1685.8c-137.6-181.5-223.4-381-249.4-586.5c-23.9-183.5-23.9-187.5,69.8-780c31.9-211.5,10-265.3-199.5-468.8c-97.7-93.8-209.5-199.5-251.4-237.4l-75.8-67.8l295.3-261.3l297.3-261.3L5961.8,136c103.7,111.7,209.5,219.4,237.4,241.4c71.8,57.9,263.3,61.8,538.6,12c399-71.8,660.3-47.9,917.7,87.8c243.4,129.7,325.2,209.5,1586,1564.1c341.1,367.1,632.4,684.3,646.4,704.2c31.9,41.9,12,71.8-203.5,323.2l-117.7,135.7l-810-810c-608.5-608.5-823.9-810-859.8-812c-219.4-10-339.1,93.8-339.1,291.3v97.8l817.9,819.9l817.9,817.9l-189.5,189.5l-189.5,189.5l-813.9-813.9l-813.9-812H7099c-169.6,0-299.2,129.7-299.2,299.2v87.8l798,800l800,800L8208.2,4503l-187.5,151.6L7623.6,4283.6z"/><path d="M794.9,3984.3c-185.5-31.9-405-147.6-506.7-267.3C-5.1,3371.9,48.7,2649.7,419.8,1919.5c245.4-480.8,576.5-871.8,917.7-1077.3c259.3-157.6,544.6-239.4,975.5-275.3c708.2-61.8,742.1-67.8,871.8-185.5c49.9-45.9,602.5-644.4,1228.9-1330.7C5840.2-2509.3,6299-3000.1,6761.8-3452.9c538.6-528.7,857.8-790,1101.2-903.7c247.4-115.7,347.1-103.8,518.7,69.8c73.8,73.8,121.7,141.6,133.7,187.5c53.9,201.5-107.7,492.8-552.6,995.5c-504.7,570.6-859.8,909.7-3068.2,2920.6C4379.8,287.6,3887.1,740.5,3803.3,824.3c-207.5,201.5-217.5,235.4-255.4,800c-51.9,796-217.5,1177-694.2,1596c-516.7,454.9-1304.7,786-1857.3,776C912.6,3994.3,822.8,3988.3,794.9,3984.3z"/><path d="M3105-1452C1989.9-2487.4,1570.9-2906.3,1219.8-3343.2c-321.2-397-426.9-654.3-337.1-813.9c49.9-93.8,217.5-243.4,295.3-267.3c267.3-79.8,812,309.2,1691.7,1212.9c409,423,1406.5,1502.2,1406.5,1524.2c0,24-592.5,738.1-612.5,738.1C3655.7-949.2,3402.3-1176.7,3105-1452z"/></g></g>
</svg>