<?xml version="1.0" encoding="utf-8"?>
<!-- Svg Vector Icons : http://www.onlinewebfonts.com/icon -->
<!DOCTYPE svg PUBLIC "-//W3C//DTD SVG 1.1//EN" "http://www.w3.org/Graphics/SVG/1.1/DTD/svg11.dtd">
<svg version="1.1" xmlns="http://www.w3.org/2000/svg" xmlns:xlink="http://www.w3.org/1999/xlink" x="0px" y="0px" viewBox="0 0 1000 1000" enable-background="new 0 0 1000 1000" xml:space="preserve">
<metadata> Svg Vector Icons : http://www.onlinewebfonts.com/icon </metadata>
<g><path d="M499.4,10c67.9,0,131.6,12.9,191,38.6c59.4,25.8,111.3,60.7,155.7,104.7c44.4,44.1,79.5,95.9,105.3,155.7c25.8,59.7,38.6,123.2,38.6,190.4c0,67.9-12.9,131.6-38.6,190.9c-25.8,59.4-60.8,111.2-105.3,155.7c-44.4,44.4-96.3,79.5-155.7,105.3c-59.4,25.8-123,38.6-191,38.6c-67.2,0-130.7-12.9-190.4-38.6c-59.7-25.8-111.6-60.8-155.7-105.3c-44-44.4-79-96.3-104.7-155.7C22.9,631,10,567.4,10,499.4c0-67.2,12.9-130.7,38.6-190.4c25.8-59.7,60.7-111.6,104.7-155.7c44.1-44,96-79,155.7-104.7C368.8,22.9,432.2,10,499.4,10L499.4,10z M677.5,253.1c-21.7,0-40.1,9-55.4,26.9c-15.3,17.9-23,39.9-23,66.1c0,25.4,7.7,47,23,65c15.3,17.9,33.8,26.9,55.4,26.9c21.6,0,39.9-9,54.9-26.9c14.9-17.9,22.4-39.6,22.4-65c0-26.1-7.5-48.2-22.4-66.1C717.5,262,699.2,253.1,677.5,253.1L677.5,253.1z M314.6,255.3c-20.9,0-38.8,9-53.8,26.9c-14.9,17.9-22.4,39.6-22.4,65c0,26.1,7.5,48.2,22.4,66.1c14.9,17.9,32.9,26.9,53.8,26.9c20.9,0,38.6-9,53.2-26.9c14.6-17.9,21.8-39.9,21.8-66.1c0-25.4-7.3-47-21.8-65C353.3,264.3,335.6,255.3,314.6,255.3L314.6,255.3z M777.2,639.4c0.8-1.5,1.1-4.1,1.1-7.8c0-3.7-0.6-7.8-1.7-12.3c-1.1-4.5-3.4-8.6-6.7-12.3c-3.4-3.7-8-6.7-14-9c-17.2,20.9-38.5,39.6-63.8,56c-21.6,14.2-49.1,27.1-82.3,38.6c-33.2,11.6-72.2,17.4-117,17.4c-44.8,0-82.9-5.8-114.2-17.4c-31.4-11.6-57.9-24.5-79.5-38.6c-24.6-16.4-45.5-35.1-62.7-56c-6,1.5-10.5,4.1-13.4,7.8c-3,3.7-5.2,7.8-6.7,12.3c-1.5,4.5-2.2,8.6-2.2,12.3c0,3.7,0.4,6.7,1.1,9c0.8,0.7,0.9,1.3,0.6,1.7c-0.4,0.4-0.2,0.9,0.6,1.7c6.7,20.2,18.7,39,35.8,56.6c17.2,17.6,38.1,32.9,62.7,45.9c24.6,13.1,52.4,23.1,83.4,30.2c31,7.1,63.7,10.6,98,10.6c67.9,0,126.6-12.3,175.8-37c49.3-24.6,82.9-57.1,100.8-97.4c0-1.5,0.4-3,1.1-4.5C774.6,645.8,775.7,643.2,777.2,639.4L777.2,639.4z"/></g>
</svg>