<?xml version='1.0' encoding='iso-8859-1'?>
<svg version="1.1" xmlns="http://www.w3.org/2000/svg" viewBox="0 0 296 296" xmlns:xlink="http://www.w3.org/1999/xlink" enable-background="new 0 0 296 296">
  <g>
    <g>
      <path d="m41,124h-17c-4.418,0-8,3.582-8,8s3.582,8 8,8h17c4.418,0 8-3.582 8-8s-3.582-8-8-8z"/>
      <path d="m59.169,71.525l-14.723-8.5c-3.826-2.207-8.719-0.898-10.929,2.929-2.209,3.826-0.898,8.719 2.929,10.929l14.723,8.5c1.26,0.727 2.635,1.072 3.992,1.072 2.765,0 5.454-1.435 6.937-4.001 2.209-3.826 0.897-8.719-2.929-10.929z"/>
      <path d="m87.283,43.167c1.482,2.566 4.171,4.001 6.937,4.001 1.356,0 2.732-0.346 3.992-1.072 3.826-2.21 5.138-7.103 2.929-10.929l-8.5-14.723c-2.21-3.825-7.1-5.136-10.929-2.929-3.826,2.21-5.138,7.103-2.929,10.929l8.5,14.723z"/>
      <path d="m147.667,33c4.418,0 8-3.582 8-8v-17c0-4.418-3.582-8-8-8s-8,3.582-8,8v17c0,4.418 3.582,8 8,8z"/>
      <path d="m197.333,46.219c1.26,0.727 2.635,1.072 3.992,1.072 2.765,0 5.454-1.435 6.936-4.001l8.5-14.723c2.209-3.826 0.898-8.719-2.929-10.929-3.826-2.207-8.719-0.899-10.929,2.929l-8.5,14.723c-2.208,3.826-0.896,8.719 2.93,10.929z"/>
      <path d="m262.027,65.832c-2.209-3.825-7.1-5.137-10.929-2.929l-14.723,8.5c-3.826,2.21-5.138,7.103-2.929,10.929 1.482,2.566 4.171,4.001 6.936,4.001 1.356,0 2.732-0.346 3.992-1.072l14.723-8.5c3.828-2.21 5.139-7.103 2.93-10.929z"/>
      <path d="m272,124h-17c-4.418,0-8,3.582-8,8s3.582,8 8,8h17c4.418,0 8-3.582 8-8s-3.582-8-8-8z"/>
      <path d="m148.056,49.166c-45.472,0-82.108,36.862-82.108,82.334 0,27.186 12.719,51.287 33.719,66.28v8.718c0,14.467 6.465,27.479 16.295,36.502h-1.295v37h17.333c0,8.837 7.163,16 16,16s16-7.163 16-16h16.667v-36.092c11-9.047 17-22.445 17-37.41v-9.471c20-15.041 32.593-38.79 32.593-65.527 0-45.472-36.731-82.334-82.204-82.334zm7.611,118.236v79.598h-16v-79.598l-24.728-43.402h66.121l-25.393,43.402z"/>
    </g>
  </g>
</svg>
