<?xml version="1.0" encoding="utf-8"?>
<!-- Svg Vector Icons : http://www.onlinewebfonts.com/icon -->
<!DOCTYPE svg PUBLIC "-//W3C//DTD SVG 1.1//EN" "http://www.w3.org/Graphics/SVG/1.1/DTD/svg11.dtd">
<svg version="1.1" xmlns="http://www.w3.org/2000/svg" xmlns:xlink="http://www.w3.org/1999/xlink" x="0px" y="0px" viewBox="0 0 1000 1000" enable-background="new 0 0 1000 1000" xml:space="preserve">
<metadata> Svg Vector Icons : http://www.onlinewebfonts.com/icon </metadata>
<g><path d="M109.4,990c-16.4-9.2-23.9-22.7-23.8-42.1C85.9,791,85.8,634,85.8,477.1c0-3.1,0.4-6.3,0.7-11.1c117.8,0,235.3,0,355.3,0c0,7.7,0,15.2,0,22.6c0,159.5,0,318.9,0,478.4c0,7.6,0.4,15.3,0.6,22.9C331.4,990,220.4,990,109.4,990z"/><path d="M557.2,990c0.2-144,0.4-288,0.6-432c0-30.4,0-60.8,0-92.4c119.1,0,236.1,0,356,0c0,6.7,0,13.4,0,20.1c0,152.9-0.3,305.8,0.3,458.8c0.1,20.4-4.8,36.2-23.9,45.5C779.3,990,668.3,990,557.2,990z"/><path d="M457.7,990c0.2-35.1,0.6-70.1,0.6-105.2c0.1-199.7,0-399.3,0-599c0-7.6,0-15.1,0-24.3c27.8,0,54.2,0,83.6,0c0,243,0,485.7,0,728.5C513.9,990,485.8,990,457.7,990z"/><path d="M140,10c50.5,12.9,101.1,25.1,151.3,38.9c37.8,10.4,71.4,29.6,104.1,55.8c-28.1,23.6-32.4,51.8-17.5,85.4c-8.1,2.4-15.1,6.2-22.1,6.3c-74.5,0.8-149.1,8.6-223.1-6.2c-44.3-8.9-53.5-22.3-43.2-66.8c5.4-23.4,1-43.4-11-63.7C62.2,32.5,65.9,23.1,94,10C109.4,10,124.7,10,140,10z"/><path d="M894.1,10c32.4,16.8,34.5,20.7,17.2,53.9c-10.6,20.5-9,37.5,2.8,56.9c26.7,43.7,22.3,51.1-28,58.4c-71.2,10.3-142.2,21.8-213.5,31.3c-15.4,2.1-31.7-2.2-50.1-3.7c15.1-36.1,7.3-62.1-23.3-86.1c16.3-12,29.4-25.8,45.4-32.4c72.2-30.1,144.2-61.2,221.8-75.6c1.7-0.3,3.2-1.8,4.8-2.8C878.8,10,886.5,10,894.1,10z"/><path d="M558.9,422.3c0-53.3,0-106,0-161.2c6.6-0.4,13.4-1,20.1-1c109.7-0.1,219.4-0.1,329.1,0c36.8,0,47.5,11,47.6,48.2c0,26.8,0.5,53.6-0.2,80.4c-0.6,21.9-13.1,35.1-34.5,35.2c-118,0.4-236,0.2-354,0.1C564.5,423.9,562.1,423,558.9,422.3z"/><path d="M440.8,260c0,56.4,0,109.1,0,163.1c-7.1,0.4-13.3,0.9-19.5,0.9c-110.3,0.1-220.5,0.1-330.8,0c-35.8,0-46.1-10.7-46.2-47.1c0-24.9-0.2-49.7,0-74.6c0.3-29.2,12.5-41.9,41.9-42.2c46.5-0.5,93.1-0.1,139.6-0.1c64.4,0,128.7,0,193.1,0C425.8,260,432.7,260,440.8,260z"/><path d="M502.5,100c21.3,8.7,44.8,14.2,63.3,27c34.5,23.6,34.3,65.2,2.8,92.7c-36.9,32.4-105.1,30.9-140.5-3.1c-26.6-25.5-26.5-60.3,0.5-85.5c20.1-18.8,44.7-25.8,71.6-26C501.1,103.4,501.8,101.7,502.5,100z"/></g>
</svg>