<?xml version="1.0" encoding="utf-8"?>
<!-- Svg Vector Icons : http://www.onlinewebfonts.com/icon -->
<!DOCTYPE svg PUBLIC "-//W3C//DTD SVG 1.1//EN" "http://www.w3.org/Graphics/SVG/1.1/DTD/svg11.dtd">
<svg version="1.1" xmlns="http://www.w3.org/2000/svg" xmlns:xlink="http://www.w3.org/1999/xlink" x="0px" y="0px" viewBox="0 0 1000 1000" enable-background="new 0 0 1000 1000" xml:space="preserve">
<metadata> Svg Vector Icons : http://www.onlinewebfonts.com/icon </metadata>
<g><g transform="translate(0.000000,511.000000) scale(0.100000,-0.100000)"><path d="M1825.7,3763.9c-140-47.9-191.8-86.3-393.2-295.4C730.5,2741.6,277.9,1788.3,124.4,710.4c-32.6-226.3-32.6-982,0-1208.3C281.7-1602.7,738.2-2552.1,1467-3296.3c214.8-218.6,314.6-270.4,531.3-270.4c128.5,0,170.7,7.7,262.8,53.7c118.9,57.5,220.6,159.2,287.7,285.8c36.4,69,44.1,111.2,44.1,264.7c0,224.4-28.8,287.7-228.2,496.8C1495.8-1549,1148.7-352.2,1398,863.8c134.3,661.7,468,1288.9,966.7,1814.4c178.4,188,222.5,274.3,234,458.4c9.6,178.4-38.4,318.4-151.5,446.9C2301.4,3750.4,2025.2,3829.1,1825.7,3763.9z"/><path d="M7823.3,3761.9c-270.4-88.2-443.1-351-420-636.8c11.5-163,69.1-270.4,232.1-446.9c600.3-642.5,936-1359.9,1026.1-2192.3c72.9-663.6-47.9-1356-343.3-1967.9c-180.3-374-377.8-657.9-688.6-989.7c-186-201.4-222.5-280-222.5-491c0-195.6,42.2-301.1,166.9-425.8c132.3-134.3,243.6-178.4,437.3-178.4c218.7,0,314.6,49.9,531.3,278.1c732.7,765.3,1175.7,1693.6,1333,2790.7c32.6,226.3,32.6,982,0,1208.3c-157.3,1099-598.4,2023.5-1333,2790.7c-201.4,209.1-310.7,272.4-502.5,280C7959.5,3786.9,7873.1,3777.3,7823.3,3761.9z"/><path d="M3206.7,2536.3c-126.6-42.2-189.9-82.5-274.3-174.5c-44.1-47.9-90.1-88.2-99.7-88.2c-30.7,0-326.1-370.2-437.3-546.6c-197.5-318.4-333.7-669.4-410.5-1054.9c-61.4-306.9-61.4-830.5,0-1137.4c80.6-397,235.9-786.4,439.2-1097.1c109.3-164.9,381.7-498.7,408.5-498.7c9.6,0,57.5-42.2,105.5-94c122.8-132.4,247.4-182.2,441.1-184.1c130.4,0,170.7,7.7,262.8,53.7c118.9,57.5,220.6,159.2,287.7,285.8c36.4,69,44.1,111.2,44.1,264.7c0,163-5.8,191.8-53.7,278.1c-28.8,53.7-118.9,161.1-197.5,239.7c-581.2,575.4-725,1411.7-370.2,2138.6c90.1,186,201.4,337.6,389.4,527.4c180.3,186.1,226.3,274.3,237.8,460.3c9.6,178.4-38.4,318.4-151.5,446.9C3682.3,2522.9,3406.1,2601.6,3206.7,2536.3z"/><path d="M6446.2,2534.4c-272.4-88.2-446.9-351-423.9-636.8c13.4-166.9,71-274.3,247.4-454.6c268.5-276.2,441.1-579.2,527.5-930.2c23-90.1,32.6-209.1,32.6-406.6c0-197.6-9.6-316.5-32.6-406.6c-86.3-351-258.9-654-527.5-930.2c-203.3-207.1-243.6-293.4-243.6-504.4c0-195.6,42.2-301.1,166.9-425.8c132.3-134.3,243.6-178.4,437.3-178.4c212.9,0,306.9,47.9,533.2,274.3c462.3,462.2,753.8,1026.1,870.8,1691.7c15.3,84.4,24.9,285.8,24.9,489.1c-1.9,280-9.6,385.5-44.1,562c-126.6,631-404.7,1152.7-851.6,1599.6c-207.1,205.2-314.5,264.7-502.5,276.2C6576.6,2557.4,6494.1,2551.7,6446.2,2534.4z"/><path d="M4731.5,1303.1c-448.8-95.9-836.2-487.2-930.2-937.9C3619-505.6,4388.2-1274.7,5258.9-1092.5c456.5,95.9,843.9,483.3,939.8,939.8C6380.9,721.9,5606.1,1491,4731.5,1303.1z"/></g></g>
</svg>