<svg height="300px" width="300px" fill="#000000" xmlns="http://www.w3.org/2000/svg" xmlns:xlink="http://www.w3.org/1999/xlink" xmlns:a="http://ns.adobe.com/AdobeSVGViewerExtensions/3.0/" version="1.1" x="0px" y="0px" viewBox="-25.257 -31.931 1024 1024" enable-background="new -25.257 -31.931 1024 1024" xml:space="preserve"><path d="M460.782,116.288c-14.039-31.219-48.039-15.219-80.039,20.781c-53.999,60.749-220.146,70.98-283.657,42.501  c-63.184-28.316-62.743,22.499-62.743,22.499c3.921,549.376,321.05,504.866,321.05,504.866  C668.96,596.777,460.782,116.288,460.782,116.288z M136.3,382.046c6.732-40.636,45.505-48.953,45.505-48.953  c52.677-16.977,70.602,35.179,70.602,35.179C229.712,432.224,136.3,382.046,136.3,382.046z M335.1,602.217  c-83.886,19.607-139.439-72.987-139.439-72.987c144.88,63.184,233.112-46.829,233.112-46.829S418.97,582.611,335.1,602.217z   M324.202,359.302c0,0-8.709-54.459,45.75-64.263c0,0,38.12-10.897,63.184,21.78C433.136,316.819,374.314,405.052,324.202,359.302z"/><g><g><path d="M446.417,725.892c17.417,43.819,44.27,83.442,81.355,112.968c20.61,16.41,43.2,30.235,68.122,39.052    c3.266,1.155,5.843,1.498,9.597,1.817c8.627,0.733,17.287,1.051,25.943,1c17.545-0.105,35.166-2.05,52.364-5.48    c29.861-5.957,58.841-18.174,84.17-35.04c50.32-33.507,86.896-83.786,112.779-137.749    c25.181-52.499,41.868-108.729,53.183-165.733c8.375-42.194,14.038-85.067,16.932-127.99c1.949-28.907,5.615-66.114-24.95-81.955    c-20.903-10.833-45.733-5.82-66.76,1.97c-4.48,1.66-8.895,3.546-13.279,5.438c-5.841,2.521,4.494-1.829,0.513-0.21    c-0.941,0.383-1.894,0.737-2.846,1.092c-4.279,1.596-8.677,2.862-13.106,3.963c-4.321,1.075-8.704,1.893-13.102,2.587    c-1.466,0.231-5.778,0.786,1.027-0.107c-1.156,0.151-2.315,0.281-3.474,0.412c-2.754,0.309-5.517,0.534-8.28,0.73    c-10.38,0.737-20.811,0.655-31.197,0.117c-5.214-0.27-10.419-0.708-15.613-1.235c-2.637-0.268-5.27-0.582-7.899-0.91    c-4.778-0.597,5.074,0.709,0.294,0.04c-1.769-0.248-3.535-0.519-5.3-0.792c-22.119-3.429-43.936-8.892-65.146-16.019    c-4.521-1.519-9.007-3.146-13.467-4.839c-1.991-0.755-3.971-1.54-5.947-2.332c-1.174-0.47-2.342-0.954-3.51-1.437    c5.822,2.409,1.619,0.682,0.41,0.159c-8.4-3.627-16.626-7.661-24.625-12.103c-7.183-3.988-14.132-8.404-20.732-13.297    c-1.699-1.284-1.071-0.791,1.885,1.479c-0.77-0.595-1.525-1.207-2.281-1.818c-1.465-1.186-2.89-2.421-4.297-3.674    c-2.634-2.347-5.122-4.853-7.475-7.48c-7.64-8.53-21.941-7.757-29.699,0c-8.423,8.423-7.63,21.179,0,29.698    c12.028,13.431,27.69,23.838,43.402,32.463c19.441,10.673,40.351,18.973,61.444,25.74c42.358,13.589,88.79,21.635,133.332,17.966    c10.898-0.898,21.846-2.468,32.466-5.109c4.082-1.015,8.102-2.27,12.056-3.702c3.286-1.19,6.517-2.597,9.721-3.976    c3.485-1.5-4.393,1.792,1.01-0.434c2.135-0.879,4.295-1.694,6.459-2.497c5.569-2.063,11.271-3.764,17.063-5.07    c1.786-0.403,10.46-1.614,2.863-0.68c2.46-0.302,4.938-0.418,7.414-0.426c2.034-0.006,9.123,0.872,0.865-0.272    c1.628,0.225,3.228,0.607,4.807,1.053c0.734,0.208,1.451,0.468,2.167,0.729c-6.671-2.431-3.965-1.732-2.359-0.953    c1.949,0.946,6.869,4.753,0.309-0.367c1.013,0.79,1.93,1.695,2.807,2.629c2.899,3.086-3.514-5.144-0.612-0.795    c0.685,1.027,1.268,2.119,1.818,3.222c0.767,1.537,1.818,4.433-1.125-2.768c0.31,0.757,0.572,1.532,0.83,2.307    c0.765,2.305,1.262,4.694,1.637,7.09c-1.465-9.356-0.163-0.188-0.114,2.481c0.049,2.704-0.107,5.428-0.189,8.135    c-0.866,28.709-3.695,57.412-7.463,85.871c-0.429,3.235,0.834-6.188,0.396-2.942c-0.09,0.666-0.181,1.332-0.272,1.998    c-0.185,1.347-0.374,2.693-0.563,4.04c-0.422,2.984-0.86,5.965-1.31,8.945c-0.899,5.971-1.86,11.932-2.87,17.885    c-2.158,12.711-4.587,25.375-7.276,37.984c-5.837,27.367-13.01,54.463-21.799,81.034c-4.565,13.801-9.611,27.443-15.157,40.882    c-0.334,0.81-0.672,1.617-1.011,2.425c2.782-6.651,1.376-3.254,0.752-1.789c-0.687,1.611-1.385,3.219-2.087,4.823    c-1.521,3.478-3.09,6.934-4.688,10.376c-3.069,6.609-6.301,13.142-9.672,19.602c-6.692,12.824-14.043,25.306-22.073,37.337    c-3.973,5.952-8.144,11.771-12.48,17.464c-2.187,2.871,3.41-4.39,1.194-1.544c-0.525,0.674-1.055,1.344-1.585,2.014    c-1.059,1.337-2.134,2.661-3.214,3.981c-2.334,2.852-4.731,5.651-7.168,8.416c-9.311,10.56-19.431,20.402-30.283,29.368    c-1.298,1.073-2.613,2.125-3.933,3.171c-1.24,0.982-4.084,3.151,1.591-1.216c-0.667,0.514-1.34,1.021-2.013,1.526    c-2.919,2.197-5.899,4.312-8.918,6.369c-5.833,3.978-11.869,7.652-18.048,11.064c-6.258,3.454-12.701,6.566-19.266,9.392    c7.391-3.181,1.136-0.495-0.602,0.195c-1.622,0.645-3.256,1.26-4.894,1.866c-3.584,1.325-7.21,2.534-10.857,3.67    c-7.186,2.237-14.497,4.06-21.87,5.562c-3.64,0.741-7.3,1.372-10.971,1.938c-0.929,0.144-1.86,0.275-2.791,0.408    c7.295-1.036,3.445-0.459,1.831-0.256c-2.213,0.279-4.432,0.514-6.651,0.731c-8.187,0.804-16.415,1.148-24.64,1.167    c-4.111,0.009-8.222-0.098-12.329-0.27c-2.097-0.088-4.192-0.211-6.288-0.344c-1.059-0.067-2.117-0.146-3.175-0.225    c-2.719-0.202-4.291-1.491,2.363,0.482c-1.349-0.399-2.676-0.875-3.997-1.354c-1.382-0.5-2.752-1.031-4.117-1.575    c-0.847-0.338-1.688-0.686-2.529-1.037c8.256,3.452,3.113,1.313,1.196,0.459c-11.504-5.129-22.482-11.418-32.924-18.447    c-3.229-2.175-6.39-4.448-9.507-6.778c-1.174-0.879-4.307-3.314,1.002,0.799c-0.825-0.639-1.642-1.289-2.457-1.938    c-1.959-1.559-3.882-3.162-5.789-4.782c-7.393-6.274-14.351-13.05-20.925-20.173c-4.322-4.682-8.418-9.567-12.354-14.575    c3.929,4.998,0.034-0.003-0.739-1.044c-1.077-1.451-2.126-2.923-3.171-4.396c-2.145-3.024-4.193-6.115-6.198-9.232    c-4.22-6.563-8.07-13.356-11.664-20.278c-1.893-3.645-3.665-7.35-5.383-11.078c-0.882-1.915-1.724-3.847-2.56-5.781    c2.243,5.188-0.565-1.474-0.95-2.441c-4.225-10.628-13.878-17.955-25.833-14.667C450.96,702.844,442.183,715.238,446.417,725.892    L446.417,725.892z"/></g></g><g><path d="M558.618,476.605c22.019-32.983,59.336-24.92,59.336-24.92c52.959,6.002,48.024,58.885,48.024,58.885   C620.705,557.696,558.618,476.605,558.618,476.605z"/><g><path d="M561.641,478.372c10.258-14.977,26.217-23.417,44.26-24.031c11.106-0.378,23.315,1.893,33.314,7.406    c16.799,9.26,24.943,30.225,23.264,48.823c0.342-0.825,0.684-1.649,1.025-2.475c-9.227,9.412-20.605,14.57-33.875,13.509    c-12.118-0.97-23.526-7.191-33.364-13.93c-9.146-6.266-17.39-13.855-25.016-21.877c-2.475-2.602-4.868-5.282-7.188-8.022    c-0.692-0.818-1.374-1.646-2.047-2.48c-0.27-0.334-1.465-1.877-0.374-0.457c-2.709-3.527-8.794-0.048-6.045,3.533    c14.573,18.979,34.045,36.592,56.271,45.819c15.445,6.411,32.609,6.265,46.867-2.983c4.195-2.721,10.601-6.637,10.826-12.049    c0.16-3.827-0.108-7.673-0.611-11.465c-1.377-10.388-4.87-20.503-11.245-28.91c-9.063-11.951-22.819-18.251-37.427-20.304    c-25.546-3.59-49.622,4.373-64.682,26.358C553.037,478.574,559.106,482.07,561.641,478.372z"/></g></g><g><path d="M529.026,691.396c0.843-1.343,56.699-87.402,136.268-66.328c80.193,21.235,86.81,117.979,86.81,117.979   S670.267,634.661,529.026,691.396z"/><g><path d="M532.049,693.163c12.305-19.411,30.45-36.604,49.549-49.097c16.464-10.77,35.269-17.893,55.03-18.754    c21.195-0.924,42.423,5.924,59.793,17.908c21.496,14.832,35.628,38.301,43.949,62.629c4.083,11.935,7.386,25.056,8.233,37.198    c2.174-0.589,4.348-1.178,6.522-1.767c-9.133-12.062-20.977-22.304-32.987-31.361c-26.995-20.355-58.987-33.366-92.574-37.3    c-34.49-4.04-69.417,2.646-101.469,15.401c-4.142,1.648-2.337,8.421,1.861,6.75c42.374-16.863,88.412-21.853,132.354-8.103    c27.502,8.604,52.809,24.186,73.621,44.035c3.483,3.322,6.834,6.788,10.016,10.399c0.919,1.043,1.819,2.104,2.698,3.181    c0.386,0.473,1.343,1.729,0.435,0.53c1.876,2.477,6.792,2.094,6.522-1.767c-1.336-19.132-7.231-38.444-15.149-55.785    c-15.624-34.216-44.741-60.353-82.283-67.358c-34.282-6.397-67.317,6.941-93.822,28.098    c-14.504,11.576-28.354,25.868-38.345,41.628C523.58,693.455,529.64,696.962,532.049,693.163z"/></g></g><g><path d="M732.539,531.177c0,0,13.946-51.271,65.629-38.262c0,0,37.784,5.552,46.816,44.168   C844.984,537.083,758.371,591.192,732.539,531.177z"/><g><path d="M735.914,532.108c5.557-20.186,22.993-36.799,44.306-37.774c9.84-0.45,21.127,2.034,30.203,6.095    c15.965,7.143,27.021,20.616,31.187,37.586c0.536-1.317,1.072-2.635,1.608-3.953c-13.295,8.281-28.262,14.584-43.362,18.609    c-11.612,3.096-24.073,4.633-35.909,1.902c-13.516-3.118-22.896-12.746-28.385-25.162c-1.822-4.121-7.852-0.556-6.045,3.533    c21.225,48.014,82.995,28.488,117.234,7.162c1.365-0.851,1.992-2.39,1.608-3.953c-7.54-30.721-36.354-48.922-66.974-48.848    c-25.003,0.062-45.569,19.579-52.208,42.892c-0.005,0.017-0.009,0.033-0.014,0.05    C727.964,534.607,734.718,536.455,735.914,532.108z"/></g></g></svg>