<?xml version="1.0" encoding="utf-8"?>
<!-- Svg Vector Icons : http://www.onlinewebfonts.com/icon -->
<!DOCTYPE svg PUBLIC "-//W3C//DTD SVG 1.1//EN" "http://www.w3.org/Graphics/SVG/1.1/DTD/svg11.dtd">
<svg version="1.1" xmlns="http://www.w3.org/2000/svg" xmlns:xlink="http://www.w3.org/1999/xlink" x="0px" y="0px" viewBox="0 0 1000 1000" enable-background="new 0 0 1000 1000" xml:space="preserve">
<metadata> Svg Vector Icons : http://www.onlinewebfonts.com/icon </metadata>
<g><g transform="translate(0.000000,511.000000) scale(0.100000,-0.100000)"><path d="M617.2,3891.6c-233.9-85.5-437.7-309.4-495.5-543.3c-17.6-78-25.2-923.1-20.1-2764.2l7.5-2653.6L521.6-522.6c261.6,983.5,440.2,1602.2,487.9,1705.3c166,344.6,553.3,626.3,935.7,681.6c108.1,15.1,1471.4,25.2,3536.4,25.2h3360.3l-20.1,120.7c-55.3,291.8-289.2,576-571,689.2l-143.4,57.8l-2746.6,7.5l-2749.1,7.6v261.6c0,427.6-123.2,661.5-432.6,814.9l-153.4,78h-656.5C883.8,3924.3,687.6,3916.8,617.2,3891.6z"/><path d="M1857.2,1615.4c-261.6-80.5-523.2-299.3-636.3-530.7c-37.7-78-299.3-1008.6-598.6-2125.4C139.3-2844.1,91.5-3040.3,104-3173.6c17.6-193.7,115.7-354.7,279.2-457.8l123.2-75.5h3825.7h3825.7l150.9,75.5c193.7,98.1,399.9,301.8,477.9,470.4c32.7,72.9,299.3,1028.7,593.6,2120.3c482.9,1803.4,530.7,1999.6,518.2,2132.9c-17.6,193.7-115.7,354.7-279.2,457.8l-123.2,75.5l-3787.9,5C3625.4,1633,1892.4,1625.4,1857.2,1615.4z"/></g></g>
</svg>