<svg height="300px" width="300px" fill="#000000" xmlns="http://www.w3.org/2000/svg" xmlns:xlink="http://www.w3.org/1999/xlink" version="1.1" x="0px" y="0px" viewBox="0 0 1024 1024" style="enable-background:new 0 0 1024 1024;" xml:space="preserve"><g><polygon points="823.3,106.1 806.6,283.2 801.9,332.7 789.4,465.7 723.9,525.1 723.9,96.7  "/><path d="M693.9,61.3v491l-81.8,74.2l-11.2-10.1l-11.2-10.1l-34.8-31.2c41.8-26.7,69.5-73.5,69.5-126.8   c0-83.1-67.4-150.5-150.5-150.5c-83.1,0-150.5,67.4-150.5,150.5c0,73.5,52.7,134.7,122.3,147.9l-11.3,10.2l-11.2,10.1l-11.2,10.1   l-173.1-157V61.3H693.9z"/><path d="M926.7,391L806.6,283.2l-4.7,49.5l94.9,85.2L639.2,650.8l11.3,10.1l11.2,10.1L872.4,860l-26.7,29.8   l-213.9-192l-34-30.5l-15.4-13.8l-11.2-10.1l-11.2-10.1L512,590.4l-47.9,42.9l-11.2,10.1l-11.2,10.1l-15.4,13.8l-34,30.5l-214,192   L151.6,860L362.4,671l11.2-10.1l11.3-10.1L127.1,418l111.7-100.3v-53.8L97.3,391l-15.8,14.2v531c0,7.2,3,14.2,8.2,19.1   c5,4.8,11.5,7.4,18.3,7.4h808c6.9,0,13.4-2.6,18.3-7.4c5.2-5,8.2-11.9,8.2-19.1v-531L926.7,391z"/></g></svg>