<svg xmlns="http://www.w3.org/2000/svg" viewBox="0 0 50 50"><path d="M39.2 26.676c-5.966 0-10.802 4.84-10.802 10.804 0 5.961 4.836 10.797 10.801 10.797S50 43.441 50 37.48c0-5.964-4.836-10.804-10.8-10.804zm.695 18.789v-.934a.695.695 0 10-1.39 0l-.001.934a8.03 8.03 0 01-7.29-7.293h.934a.694.694 0 100-1.387h-.933a8.026 8.026 0 017.289-7.293v.938c0 .383.312.695.695.695a.697.697 0 00.696-.695v-.938a8.026 8.026 0 017.289 7.293h-.938a.691.691 0 00-.691.695.69.69 0 00.691.692h.938a8.03 8.03 0 01-7.29 7.293zm0 0"/><path d="M43.223 36.434h-2.504c-.336-.48-.89-.801-1.52-.801-.008 0-.02.004-.031.004l-2.281-3.215a1.044 1.044 0 10-1.7 1.21l2.286 3.216c-.07.199-.118.41-.118.632a1.842 1.842 0 003.364 1.043h2.504a1.04 1.04 0 001.043-1.043c0-.578-.465-1.046-1.043-1.046zm0 0M10.395 16c1.89 0 3.421-1.55 3.421-3.438V5.141a3.42 3.42 0 00-6.84 0v7.421a3.42 3.42 0 003.419 3.418zm0-.02M31.34 16c1.887 0 3.418-1.55 3.418-3.438V5.141a3.42 3.42 0 00-6.836 0v7.421a3.414 3.414 0 003.418 3.418zm0-.02M15.027 25.5c0-1-.789-1.8-1.765-1.8H9.984c-.976 0-1.77.8-1.77 1.8v3.25c0 .977.794 1.75 1.77 1.77h3.278c.976 0 1.765-.793 1.765-1.77zm0-.027M24.273 25.5c0-1-.789-1.8-1.765-1.8H19.23c-.976 0-1.765.8-1.765 1.777v3.273c0 .977.789 1.77 1.765 1.77h3.278c.976 0 1.765-.793 1.765-1.77zm0-.023M28.5 23.7c-1 0-1.8.8-1.8 1.773v3.277c0 .883.667 1.582 1.51 1.71a13.094 13.094 0 015.306-4.706v-.281c0-.977-.79-1.766-1.766-1.766zm-.023.007M9.984 32.586c-.976 0-1.77.789-1.77 1.766v3.277a1.77 1.77 0 001.77 1.766h3.282c.972 0 1.761-.793 1.761-1.766v-3.277c0-.977-.789-1.766-1.761-1.766zm0 0M22.508 32.586H19.23c-.976 0-1.765.793-1.765 1.766v3.277c0 .973.789 1.766 1.765 1.766h3.278c.972 0 1.765-.793 1.765-1.766v-3.277c0-.973-.793-1.766-1.765-1.766zm0 0"/><path d="M27.281 42.777h-16.62a5.196 5.196 0 01-5.192-5.187V20.227h30.797v4.543a13.192 13.192 0 012.933-.344c.867 0 1.715.09 2.535.254V8.352H36.81v4.21a5.475 5.475 0 01-5.47 5.47 5.476 5.476 0 01-5.472-5.47v-4.21h-10v4.21a5.476 5.476 0 01-5.472 5.47 5.475 5.475 0 01-5.47-5.47v-4.21H0V37.59c0 5.883 4.773 10.66 10.66 10.66h20.414c.242 0 .485-.02.719-.035a13.138 13.138 0 01-4.512-5.438zm0 0"/></svg>