<?xml version="1.0" encoding="UTF-8" standalone="no"?>
<svg
   xmlns:dc="http://purl.org/dc/elements/1.1/"
   xmlns:cc="http://creativecommons.org/ns#"
   xmlns:rdf="http://www.w3.org/1999/02/22-rdf-syntax-ns#"
   xmlns:svg="http://www.w3.org/2000/svg"
   xmlns="http://www.w3.org/2000/svg"
   xmlns:sodipodi="http://sodipodi.sourceforge.net/DTD/sodipodi-0.dtd"
   xmlns:inkscape="http://www.inkscape.org/namespaces/inkscape"
   inkscape:version="1.0 (4035a4fb49, 2020-05-01)"
   sodipodi:docname="expenses.svg"
   xml:space="preserve"
   viewBox="0 0 261.81063 238.58882"
   height="238.58882"
   width="261.81064"
   y="0px"
   x="0px"
   id="Capa_1"
   version="1.1"><metadata
   id="metadata53"><rdf:RDF><cc:Work
       rdf:about=""><dc:format>image/svg+xml</dc:format><dc:type
         rdf:resource="http://purl.org/dc/dcmitype/StillImage" /><dc:title></dc:title></cc:Work></rdf:RDF></metadata><defs
   id="defs51">
		
		
		
		
		
		
	</defs><sodipodi:namedview
   fit-margin-bottom="0"
   fit-margin-right="0"
   fit-margin-left="0"
   fit-margin-top="0"
   inkscape:current-layer="g16"
   inkscape:window-maximized="1"
   inkscape:window-y="-8"
   inkscape:window-x="-8"
   inkscape:cy="210.98048"
   inkscape:cx="-155.532"
   inkscape:zoom="0.44367887"
   showgrid="false"
   id="namedview49"
   inkscape:window-height="1017"
   inkscape:window-width="1920"
   inkscape:pageshadow="2"
   inkscape:pageopacity="0"
   guidetolerance="10"
   gridtolerance="10"
   objecttolerance="10"
   borderopacity="1"
   bordercolor="#666666"
   pagecolor="#ffffff" />
<g
   transform="translate(-109.85197,-74.569887)"
   id="g16">
	<path
   style="stroke-width:0.270833"
   d="m 299.78696,95.586507 v -7.47499 c 0,-7.47498 -6.06638,-13.54163 -13.54163,-13.54163 H 145.03314 c -7.47498,0 -13.54164,6.06665 -13.54164,13.54163 v 7.47499 c 0,7.474983 6.06666,13.541633 13.54164,13.541633 h 141.21219 c 7.47498,0 13.54163,-6.06665 13.54163,-13.541633 z"
   id="path2" /><path
   style="stroke-width:0.270833"
   d="m 278.17451,144.06557 v -7.47499 c 0,-7.47498 -6.06638,-13.54163 -13.54164,-13.54163 H 123.39361 c -7.47499,0 -13.54164,6.06665 -13.54164,13.54163 v 7.47499 c 0,7.47498 6.06665,13.54163 13.54164,13.54163 h 141.21218 c 7.50234,0 13.56872,-6.06665 13.56872,-13.54163 z"
   id="path4" /><path
   style="stroke-width:0.270833"
   d="m 235.49127,181.71131 c 4.19791,-4.1979 8.77471,-7.88123 13.67706,-11.04997 H 123.39361 c -7.47499,0 -13.54164,6.06665 -13.54164,13.54164 v 7.47498 c 0,7.47498 6.06665,13.54164 13.54164,13.54164 h 95.60395 c 4.08984,-8.7479 9.64192,-16.62913 16.49371,-23.50829 z"
   id="path6" /><path
   style="stroke-width:0.270833"
   d="m 145.03314,218.24665 c -7.47498,0 -13.54164,6.06665 -13.54164,13.54164 v 7.47498 c 0,7.47525 6.06666,13.54164 13.54164,13.54164 h 67.00402 c -0.59556,-4.03541 -0.89375,-8.15207 -0.89375,-12.29581 0,-7.61067 1.00208,-15.05857 3.00651,-22.26245 z"
   id="path8" /><path
   style="stroke-width:0.270833"
   d="m 237.5496,301.28396 c -0.67708,-0.64972 -1.38125,-1.29999 -2.05833,-1.97707 -7.63748,-7.63749 -13.62288,-16.5208 -17.82079,-26.43328 -0.86667,-2.03124 -1.625,-4.08984 -2.32943,-6.1479 h -91.94744 c -7.47499,0 -13.54164,6.06665 -13.54164,13.54164 v 7.47498 c 0,7.47525 6.06665,13.54163 13.54164,13.54163 z"
   id="path10" />
<path
   d="m 299.66817,313.15871 c 9.40528,0 18.39487,-1.81873 26.631,-5.09239 15.84865,-6.31349 28.91726,-18.08324 36.89356,-33.02256 2.13048,-3.97515 3.87118,-8.15795 5.24844,-12.52284 2.10451,-6.75516 3.22143,-13.92621 3.22143,-21.35664 0,-4.02712 -0.3381,-7.95104 -0.96167,-11.79603 -0.75318,-4.62469 -1.94829,-9.09316 -3.55891,-13.35385 -4.98841,-13.38069 -13.8743,-24.89059 -25.22817,-33.15268 -11.84756,-8.59985 -26.44903,-13.69239 -42.21976,-13.69239 -39.75157,0 -71.96851,32.21693 -71.96851,71.96851 -0.026,39.80353 32.19102,72.02087 71.94259,72.02087 z m 0.0783,-17.3809 a 6.0822656,6.0822656 0 0 1 -4.13866,-1.57633 l -33.31825,-30.21742 a 6.0822656,6.0822656 0 0 1 0,-9.00995 l 0.31421,-0.28459 a 6.0822656,6.0822656 0 0 1 4.08577,-1.57686 h 20.58328 v -56.9849 c 0,-5.30594 4.27159,-9.57753 9.57754,-9.57753 h 5.68749 c 5.30594,0 9.57753,4.27159 9.57753,9.57753 v 56.9849 h 20.58329 a 6.0822656,6.0822656 0 0 1 4.08523,1.57686 l 0.31421,0.28459 a 6.0822656,6.0822656 0 0 1 0,9.00995 l -33.31877,30.21742 a 6.0822656,6.0822656 0 0 1 -4.03287,1.57633 z"
   style="stroke-width:0.259814"
   id="path12-32-7" /></g>
<g
   transform="translate(-109.85197,-74.569887)"
   id="g18">
</g>
<g
   transform="translate(-109.85197,-74.569887)"
   id="g20">
</g>
<g
   transform="translate(-109.85197,-74.569887)"
   id="g22">
</g>
<g
   transform="translate(-109.85197,-74.569887)"
   id="g24">
</g>
<g
   transform="translate(-109.85197,-74.569887)"
   id="g26">
</g>
<g
   transform="translate(-109.85197,-74.569887)"
   id="g28">
</g>
<g
   transform="translate(-109.85197,-74.569887)"
   id="g30">
</g>
<g
   transform="translate(-109.85197,-74.569887)"
   id="g32">
</g>
<g
   transform="translate(-109.85197,-74.569887)"
   id="g34">
</g>
<g
   transform="translate(-109.85197,-74.569887)"
   id="g36">
</g>
<g
   transform="translate(-109.85197,-74.569887)"
   id="g38">
</g>
<g
   transform="translate(-109.85197,-74.569887)"
   id="g40">
</g>
<g
   transform="translate(-109.85197,-74.569887)"
   id="g42">
</g>
<g
   transform="translate(-109.85197,-74.569887)"
   id="g44">
</g>
<g
   transform="translate(-109.85197,-74.569887)"
   id="g46">
</g>
</svg>
