<?xml version="1.0" encoding="UTF-8"?>
<svg version="1.1" viewBox="0 0 73 94.9" xmlns="http://www.w3.org/2000/svg" xmlns:cc="http://creativecommons.org/ns#" xmlns:dc="http://purl.org/dc/elements/1.1/" xmlns:rdf="http://www.w3.org/1999/02/22-rdf-syntax-ns#"><metadata><rdf:RDF><cc:Work rdf:about=""><dc:format>image/svg+xml</dc:format><dc:type rdf:resource="http://purl.org/dc/dcmitype/StillImage"/><dc:title/></cc:Work></rdf:RDF></metadata><g transform="translate(-13.6,-2.6)"><path d="m32.8 27.5h33.9c1.2 0 2.2-1 2.2-2.2v-9.6c0-1.2-1-2.2-2.2-2.2h-5.7v-0.2c-0.3-6-5.2-10.7-11.2-10.7s-10.9 4.7-11.2 10.7v0.2h-5.8c-1.2 0-2.2 1-2.2 2.2v9.6c0 1.2 1 2.2 2.2 2.2zm17-18.3c2.5 0 4.5 2 4.5 4.5s-2 4.5-4.5 4.5-4.5-2-4.5-4.5c0-2.4 2-4.5 4.5-4.5z"/><path d="m81.4 20h-7.3v5.2c0 4-3.3 7.3-7.3 7.3h-33.9c-4 0-7.3-3.3-7.3-7.3v-5.2h-6.9c-2.8 0-5.1 2.3-5.1 5.1v67.3c0 2.8 2.3 5.1 5.1 5.1h62.8c2.8 0 5.1-2.3 5.1-5.1v-67.3c-0.1-2.8-2.4-5.1-5.2-5.1zm-10.2 61.6c0 1-0.8 1.7-1.7 1.7h-38.9c-1 0-1.7-0.8-1.7-1.7v-2.9c0-1 0.8-1.7 1.7-1.7h38.8c1 0 1.7 0.8 1.7 1.7v2.9zm0-16.1c0 1-0.8 1.7-1.7 1.7h-38.9c-1 0-1.7-0.8-1.7-1.7v-2.9c0-1 0.8-1.7 1.7-1.7h38.8c1 0 1.7 0.8 1.7 1.7v2.9zm0-16.1c0 1-0.8 1.7-1.7 1.7h-38.9c-1 0-1.7-0.8-1.7-1.7v-2.9c0-1 0.8-1.7 1.7-1.7h38.8c1 0 1.7 0.8 1.7 1.7v2.9z"/></g></svg>
